<?xml version="1.0" encoding="utf-8"?>
<svg xmlns="http://www.w3.org/2000/svg" id="Layer_1" data-name="Layer 1" viewBox="0 0 3200.22 1216.99">
  <defs>
    <style>.cls-1{fill:#fff}</style>
  </defs>
  <path class="cls-1" d="M1068.89 380.29H1252c95.93 0 167.48 59.32 128 179.42-24.37 71.77-68.31 121.57-127.48 145.73l32.11 187.48h-128.91l-26.21-167H1079l-55.8 167h-126zm101 232.88c35.89 0 69.74-17.58 83.43-57.86 11.07-33.68-3-57.85-38.86-57.85h-58.58l-38.71 115.71zM1455.65 892.92h-126l171.67-512.63h126zM1997.72 643.19c-47.49 140.62-128.25 249.73-304.72 249.73h-164.78l171.68-512.63h164.77c145.72 0 182.44 115.71 133.05 262.9zm-212.08-142.8l-91.24 272.42h39.54c55.65 0 104.2-34.41 138.38-136.94 32.9-95.2 16.57-135.48-42.74-135.48zM2147.35 380.29h292.8l-34.79 112.78h-169.52l-29.27 87.14h169.5l-35.4 109.85h-171.05l-29.54 88.62h171.3l-36.62 114.24h-299.08zM2972.62 717c0 108.75-55.42 175.95-155.18 175.95S2661.58 825.72 2661.58 717s56.11-176 155.86-176 155.18 66.51 155.18 176zm-196.74 0c0 53.34 11.08 78.27 41.56 78.27S2859 770.31 2859 717s-11.09-79-41.57-79-41.55 25.62-41.55 79zM2634.57 690.06V580.21h-65.82V473.49l-90.79-.32L2408 690.06h47.14v89.25c0 92.14 65.81 113.61 112.22 113.61 29.79 0 48.49-3.46 67.2-11.78v-92.82a79.76 79.76 0 0 1-33.26 6.92c-22.85 0-32.56-11.08-32.56-36.71v-68.47zM789.52 296.61l-77.29-28.1c-21.74-8.69-28.51-6.86-35.24-6.47l-79.47 15.84a80.69 80.69 0 0 0-107.87 0L410.33 262c-6.73-.39-13.5-2.22-35.25 6.47l-77.28 28.1a19.56 19.56 0 1 0 13.37 36.76s78.27-28.21 84.63-30.78a25.41 25.41 0 0 1 12.66-1.41l6.85 1.4V519h6.83v238.6H475v142.27a60.1 60.1 0 0 0 59.92 59.92h17.48a60.1 60.1 0 0 0 59.92-59.92V757.61h52.73V519h6.83V302.6l7-1.42a25.41 25.41 0 0 1 12.66 1.41c6.36 2.57 84.63 30.78 84.63 30.78a19.56 19.56 0 0 0 13.37-36.76zM493.11 319.3v-.16a55.3 55.3 0 1 1-.06.16zM467 364.64a81 81 0 0 0 153.2-.13v83.95A15.62 15.62 0 0 0 606 444l-62.45 12.28c-28.62-5.77-61.47-12.37-62.78-12.59a15.58 15.58 0 0 0-13.77 4.49zm158.67 349.85h-13.35V572.23a60.1 60.1 0 0 0-59.92-59.92h-17.48A60.1 60.1 0 0 0 475 572.23v142.25h-13.47V519H467v-49a15.49 15.49 0 0 0 8.43 4.51c2.52.47 68 13.65 68 13.65L612 474.68a15.51 15.51 0 0 0 8.2-4.47V519h5.47z"/>
  <path class="cls-1" d="M1071.79 379.93h183.08c95.93 0 167.48 59.32 128 179.42-24.37 71.76-68.3 121.57-127.48 145.73l32.11 187.48h-128.88l-26.21-167h-50.53l-55.8 167h-126zm101 232.88c35.88 0 69.73-17.58 83.43-57.86 11.06-33.69-3-57.85-38.87-57.85h-58.58l-38.71 115.71zM1458.55 892.56h-126l171.68-512.63h126zM2000.63 642.83c-47.5 140.61-128.26 249.73-304.74 249.73h-164.76l171.67-512.63h164.77c145.72 0 182.43 115.7 133.06 262.9zM1788.54 500l-91.24 272.45h39.54c55.66 0 104.2-34.41 138.39-136.94 32.89-95.2 16.56-135.48-42.75-135.48zM2150.25 379.93h292.8l-34.79 112.78h-169.51l-29.28 87.14H2379l-35.42 109.85h-171L2143 778.31h171.29l-36.61 114.25h-299.1zM2975.52 716.6c0 108.76-55.42 176-155.17 176s-155.87-67.2-155.87-176 56.12-176 155.87-176 155.17 66.55 155.17 176zm-196.73 0c0 53.35 11.08 78.28 41.56 78.28s41.56-24.93 41.56-78.28-11.08-79-41.56-79-41.56 25.66-41.56 79zM2637.47 689.7V579.85h-65.81V473.13l-90.8-.33-70 216.9H2458V779c0 92.13 65.81 113.61 112.22 113.61 29.79 0 48.5-3.46 67.2-11.78V788a79.58 79.58 0 0 1-33.26 6.93c-22.85 0-32.55-11.08-32.55-36.71V689.7z"/>
</svg>